<?xml version="1.0" standalone="no"?>
<!DOCTYPE svg PUBLIC "-//W3C//DTD SVG 20010904//EN"
 "http://www.w3.org/TR/2001/REC-SVG-20010904/DTD/svg10.dtd">
<svg version="1.0" xmlns="http://www.w3.org/2000/svg"
 width="679.000000pt" height="677.000000pt" viewBox="0 0 679.000000 677.000000"
 preserveAspectRatio="xMidYMid meet">

<g transform="translate(0.000000,677.000000) scale(0.100000,-0.100000)"
fill="#000000" stroke="none">
<path d="M1570 2750 l0 -1830 1830 0 1830 0 0 1830 0 1830 -914 0 -913 0 -30
-82 -30 -83 858 -3 859 -2 0 -1665 0 -1665 -1660 0 -1660 0 0 1665 0 1665 475
0 474 0 11 43 c6 23 15 58 21 77 5 19 9 38 9 43 0 4 -261 7 -580 7 l-580 0 0
-1830z"/>
</g>
</svg>
